<?xml version="1.0" encoding="UTF-8" standalone="no"?>
<svg width="141px" height="54px" viewBox="0 0 141 54" version="1.1" xmlns="http://www.w3.org/2000/svg" xmlns:xlink="http://www.w3.org/1999/xlink">
    <!-- Generator: Sketch 3.8.2 (29753) - http://www.bohemiancoding.com/sketch -->
    <title>Group-2</title>
    <desc>Created with Sketch.</desc>
    <defs></defs>
    <g id="Page-1" stroke="none" stroke-width="1" fill="none" fill-rule="evenodd">
        <g id="stash_logo_mark">
            <g id="landing_page">
                <g id="Desktop-Copy-2">
                    <g id="Group">
                        <g id="Group-2" transform="translate(0.000000, 0.100000)">
                            <path d="M115.549095,30.7015661 C99.5139337,26.978629 96.1044712,2.99721772 83.4125831,3.46580598 C78.8572102,3.63398238 74.1198155,6.59131002 70.4442149,10.8242014 C66.7686144,6.59131002 62.0312196,3.63398238 57.4758467,3.46580598 C44.7839587,2.99721772 41.3744961,26.978629 25.3393353,30.7015661 C16.4830064,32.7576582 8.38785989,27.7279634 3.51739611,23.8924566 C7.44672412,28.5139168 32.2389292,56.8862238 57.4758467,47.9504966 C58.6348571,47.5402276 65.223497,45.19593 70.4442149,40.4442688 C75.6649329,45.19593 82.2535727,47.5402276 83.4125831,47.9504966 C108.649501,56.8862238 133.441706,28.5139168 137.371034,23.8924566 C132.50057,27.7279634 124.405423,32.7576582 115.549095,30.7015661" id="Fill-1" fill="#FCFCF7"></path>
                            <path d="M70.4206041,44.8095555 C72.4031458,46.3100811 74.5703297,47.6258036 76.8521298,48.7751067 C78.0295455,49.3681506 79.1776945,49.8857458 80.2827753,50.3365174 C81.0301698,50.6413858 81.5844709,50.848638 82.2171231,51.0725856 C94.5981998,55.4563985 107.52262,52.2429864 120.286591,43.7450324 C124.869453,40.6938702 129.196152,37.1071417 133.222853,33.2047461 C135.945511,30.5661378 138.076299,28.247255 139.987561,25.9993334 C142.656269,22.8605462 138.435733,18.6200984 135.188318,21.1774483 C128.734073,26.2601887 122.432151,28.7539884 116.313031,27.333369 L116.313072,27.3333784 C111.209292,26.1484167 107.500419,22.7090095 102.29551,15.3221532 C102.043665,14.9647325 99.6976822,11.5864129 99.0022879,10.6159051 C96.6080162,7.27440623 94.7285885,5.0712366 92.5997755,3.3483963 C89.774044,1.06154246 86.7001125,-0.117877504 83.2552288,0.00930862141 C78.8273376,0.172778617 74.3214339,2.34136393 70.4173188,5.87204776 L70.4150009,5.87000122 L70.4138737,5.87099646 C66.5100265,2.34093345 62.0045766,0.172762341 57.577119,0.00930835721 C54.1322425,-0.117877504 51.058311,1.06154246 48.2325795,3.3483963 C46.1037666,5.0712366 44.2243389,7.27440623 41.8300671,10.6159051 C41.1346728,11.5864129 38.7886909,14.9647325 38.5368459,15.3221532 C33.3319364,22.7090095 29.6230635,26.1484167 24.5192832,27.3333784 C18.4002046,28.7539884 12.0982828,26.2601887 5.64403713,21.1774483 C2.39662279,18.6200984 -1.82391308,22.8605462 0.844794176,25.9993334 C2.75605624,28.247255 4.88684442,30.5661378 7.60950226,33.2047461 C11.6362036,37.1071417 15.9629026,40.6938702 20.5457641,43.7450324 C33.3097356,52.2429864 46.2341552,55.4563985 58.615499,51.0724911 C59.2478841,50.848638 59.8021852,50.6413858 60.5495798,50.3365174 C61.6546605,49.8857458 62.8028095,49.3681506 63.9802252,48.7751067 C66.2634643,47.6250788 68.4319424,46.3084216 70.4155013,44.8067166 L70.4199982,44.8099976 L70.4206041,44.8095555 Z" id="Combined-Shape" fill="#AE847E"></path>
                            <path d="M64.8809638,38.5823303 C63.9408354,39.3503372 63.8592329,39.3610705 62.8125335,40.0371381 C58.3075513,42.9469253 53.6106616,45.6758749 46.2650915,45.363636 C35.0051934,44.8850103 8.38785989,30.9789266 3.51739611,27.1434198 C7.44672412,31.76488 32.2389292,60.1371871 57.4758467,51.2014599 C58.6348571,50.7911909 65.223497,48.4468933 70.4442149,43.6952321 C75.6649329,48.4468933 82.0371807,50.7911895 83.1961911,51.2014585 C108.433109,60.1371857 138.109814,27.4300028 138.109814,27.4300028 C138.109814,27.4300028 140.528553,24.9190387 140.380678,24.788595 C139.915993,24.3786881 136.910678,26.908511 133.361644,28.852299 C133.361644,28.852299 109.207943,45.9959833 93.1495106,45.3636365 C88.9957719,45.2000711 83.9731777,42.7929355 78.6704988,40.0371381 C75.9229825,38.6092563 71.7007518,35.9192882 70.4442151,35.8698084 C68.2382381,35.9048032 66.0970401,37.5888967 64.8809638,38.5823303 L64.8809638,38.5823303 Z" id="Fill-1" fill-opacity="0.14" fill="#606060"></path>
                        </g>
                    </g>
                </g>
            </g>
        </g>
    </g>
</svg>