<?xml version="1.0" encoding="UTF-8" standalone="no"?>
<svg width="119px" height="37px" viewBox="0 0 119 37" version="1.1" xmlns="http://www.w3.org/2000/svg" xmlns:xlink="http://www.w3.org/1999/xlink">
    <!-- Generator: Sketch 3.8.3 (29802) - http://www.bohemiancoding.com/sketch -->
    <title>stash</title>
    <desc>Created with Sketch.</desc>
    <defs></defs>
    <g id="landing_page" stroke="none" stroke-width="1" fill="none" fill-rule="evenodd">
        <g id="Desktop-Copy-2" transform="translate(-571.000000, -411.000000)" fill="#AE847E">
            <g id="Group" transform="translate(560.000000, 411.000000)">
                <path d="M12.1397739,28.0755731 L14.0990748,28.0755731 C14.1807127,29.8763633 14.2623494,31.0098795 14.3439874,31.4761555 C15.0787289,32.3604722 15.8869324,33.0156606 16.7686222,33.4417404 C17.650312,33.8678203 18.6626074,34.080857 19.8055386,34.080857 C21.340332,34.080857 22.5159008,33.7190965 23.3322802,32.9955647 C24.1486597,32.2720329 24.5568433,31.3957687 24.5568433,30.3667457 C24.5568433,29.6914493 24.4221427,29.1327304 24.1527375,28.690572 C23.8833322,28.2484137 23.3404481,27.8424381 22.5240686,27.4726329 C21.8872926,27.2475342 20.6668237,26.9420475 18.8626251,26.5561639 C17.0584265,26.1702803 15.6910114,25.7442068 14.7603388,25.2779308 C13.8296662,24.8116548 13.1030994,24.1162707 12.5806166,23.1917579 C12.0581337,22.267245 11.7968962,21.1859832 11.7968962,19.9479399 C11.7968962,17.729109 12.6459181,15.8841306 14.3439874,14.4129493 C16.0420566,12.941768 18.4829946,12.2061884 21.6668745,12.2061884 C22.9894092,12.2061884 24.2057963,12.3187361 25.3160724,12.5438348 C26.4263484,12.7689336 27.4304801,13.1065767 28.3284975,13.5567743 L28.4019713,13.7979504 C28.3040057,14.3606973 28.2305327,14.9314749 28.1815499,15.5103004 C28.1325671,16.0891258 28.0590941,17.4557765 27.9611286,19.6102934 L26.0753015,19.5861758 C26.0589739,19.4093125 26.0344829,19.111865 26.0018277,18.6938244 C25.9528449,17.9702926 25.8548808,17.270889 25.7079325,16.5955926 C25.2017773,15.9524533 24.5772564,15.470106 23.8343511,15.1485363 C23.0914458,14.8269666 22.2220147,14.6661842 21.2260318,14.6661842 C19.8381867,14.6661842 18.7646638,14.9716708 18.0054309,15.5826532 C17.246198,16.1936356 16.8665873,16.9251957 16.8665873,17.7773553 C16.8665873,18.6455935 17.0380244,19.2887232 17.3809038,19.7067638 C17.7237831,20.1248044 18.2299308,20.4383302 18.899362,20.6473505 C19.5687931,20.8563707 20.8055894,21.1256813 22.609788,21.4552903 C24.4139866,21.7848992 25.6262919,22.0622489 26.2467403,22.2873477 C27.1447577,22.6249958 27.8631608,23.0510693 28.4019713,23.5655808 C28.9407817,24.0800923 29.3530471,24.7192024 29.63878,25.4829305 C29.9245128,26.2466585 30.067377,27.0867467 30.067377,28.0032203 C30.067377,30.3989144 29.1244729,32.416734 27.2386364,34.0567394 C25.3527998,35.6967448 22.7036882,36.5167352 19.2912221,36.5167352 C18.1482909,36.5167352 17.0380315,36.4162462 15.9604106,36.2152651 C14.8827897,36.0142841 13.5684385,35.648504 12.0173176,35.117914 L11.7479137,34.75615 C11.8785344,33.5181067 11.9601711,32.6418424 11.9928263,32.1273309 L12.1397739,28.0755731 Z M34.0229878,17.3191208 L34.0229878,16.2338286 L36.2272013,14.859125 C36.5864083,14.6340262 36.9292825,14.3928526 37.2558343,14.1355968 L37.2558343,10.9038376 C37.2558343,9.74618676 37.1905249,8.31522312 37.0599042,6.61090377 C38.6436803,6.09639227 39.672303,5.75071004 40.1458031,5.57384672 C40.227441,5.54168975 41.2642274,5.06738157 43.2561933,4.15090796 L43.892966,4.63326008 L43.6480534,7.1414911 L43.4766146,9.91501579 L43.2561933,14.1355968 L44.0644049,14.1355968 C46.2359742,14.1355968 47.8768723,14.0552056 48.9871484,13.8944208 L48.5707969,17.1502976 C48.3748659,17.1824546 48.1952651,17.1985328 48.0319892,17.1985328 L45.6318456,17.1502976 L43.2561933,17.1502976 L43.2561933,25.205578 C43.2561933,27.6816646 43.2806843,29.1447847 43.329667,29.5949823 C43.3949774,30.350671 43.6684604,30.9415465 44.1501243,31.3676263 C44.6317882,31.7937061 45.3297821,32.0067429 46.2441271,32.0067429 C46.7992651,32.0228214 47.2441853,32.0107627 47.5789008,31.9705665 C47.9136164,31.9303702 48.3422092,31.8539986 48.8646921,31.7414492 L49.2565522,32.730271 L48.3748668,33.5985049 C47.6564529,34.3220367 47.0278502,34.9571273 46.4890397,35.5037957 C45.8522638,35.77713 45.2848885,35.9580102 44.7868971,36.0464419 C44.2889056,36.1348735 43.7786761,36.1790887 43.2561933,36.1790887 C41.3621929,36.1790887 39.8723228,35.700761 38.7865381,34.7440911 C37.7007534,33.7874213 37.1578692,32.5936118 37.1578692,31.1626267 L37.2558343,23.2038167 L37.2558343,17.246768 L36.5945702,17.246768 C35.6965528,17.246768 34.8393673,17.2708854 34.0229878,17.3191208 L34.0229878,17.3191208 Z M74.6420165,33.8637985 L74.6420165,35.672619 C72.7643438,35.5922266 71.0989547,35.5520309 69.6457992,35.5520309 C68.2742818,35.5520309 66.9436032,35.5922266 65.6537237,35.672619 L65.4333023,35.4073253 L65.6537237,32.2479189 C65.0659305,32.6177241 63.335232,33.8879053 60.4615763,36.0585007 C59.7268348,36.2192855 59.024759,36.2996767 58.3553279,36.2996767 C56.5756207,36.2996767 55.1837146,35.785173 54.1795678,34.75615 C53.1754211,33.727127 52.6733553,32.2479286 52.6733553,30.3185105 C52.6733553,29.0161532 52.8978563,27.94695 53.346865,27.1108689 C53.7958737,26.2747877 54.2775303,25.6597949 54.7918494,25.265872 C55.3061684,24.8719491 56.1021265,24.4900909 57.1797473,24.1202857 C59.7595064,23.2198906 62.5841369,22.5124479 65.6537237,21.9979364 C65.6863789,20.0845967 65.2863589,18.6295157 64.4536519,17.6326497 C63.6046173,16.6357837 62.3147571,16.1373581 60.5840326,16.1373581 C59.8819463,16.1373581 59.2125252,16.2257885 58.5757492,16.4026518 C58.2981802,16.4830442 57.9716333,16.6438267 57.5960988,16.8850039 L56.5674658,19.3208821 L54.90206,18.959118 L55.0490076,15.8479469 C56.2572492,15.0440226 57.408327,14.3446191 58.5022754,13.7497151 C59.5962239,13.1548112 60.3636091,12.7930507 60.804454,12.6644229 C61.4085748,12.4875595 62.2575967,12.3991292 63.3515451,12.3991292 C65.1312523,12.3991292 66.5966315,12.6523615 67.7477265,13.1588338 C68.8988215,13.6653061 69.7478434,14.2642206 70.2948177,14.9555954 C70.8417919,15.6469703 71.2173208,16.3865695 71.4214157,17.1744152 C71.6255105,17.9622609 71.7275564,18.959112 71.7275564,20.1649983 C71.7275564,20.6795098 71.6867381,22.0220431 71.6051001,24.1926385 C71.5561174,25.6397021 71.5316263,26.821453 71.5316263,27.7379266 C71.5316263,30.5998968 71.6132631,32.3363471 71.776539,32.9473295 C71.8418493,33.2367422 71.9724681,33.4296811 72.1683991,33.526152 C72.4296406,33.6547799 73.2541714,33.7673276 74.6420165,33.8637985 L74.6420165,33.8637985 Z M65.6537237,24.0238153 C64.2658786,24.313228 62.9964276,24.6629298 61.8453326,25.0729312 C60.6942375,25.4829325 59.8982795,25.9893972 59.4574346,26.5923403 C59.0165897,27.1952835 58.7961706,27.9549805 58.7961706,28.8714541 C58.7961706,29.9004771 59.0614899,30.6963501 59.5921365,31.2590971 C60.1227832,31.821844 60.8207772,32.1032133 61.6861394,32.1032133 C62.4208809,32.1032133 63.1596932,31.8941961 63.9025985,31.4761555 C64.6455038,31.0581149 65.2292064,30.5275329 65.6537237,29.8843935 L65.6537237,24.0238153 Z M79.5282952,28.0755731 L81.4875961,28.0755731 C81.5692341,29.8763633 81.6508708,31.0098795 81.7325087,31.4761555 C82.4672502,32.3604722 83.2754538,33.0156606 84.1571436,33.4417404 C85.0388334,33.8678203 86.0511287,34.080857 87.19406,34.080857 C88.7288533,34.080857 89.9044221,33.7190965 90.7208016,32.9955647 C91.537181,32.2720329 91.9453646,31.3957687 91.9453646,30.3667457 C91.9453646,29.6914493 91.810664,29.1327304 91.5412588,28.690572 C91.2718536,28.2484137 90.7289694,27.8424381 89.9125899,27.4726329 C89.275814,27.2475342 88.055345,26.9420475 86.2511464,26.5561639 C84.4469478,26.1702803 83.0795327,25.7442068 82.1488602,25.2779308 C81.2181876,24.8116548 80.4916208,24.1162707 79.9691379,23.1917579 C79.4466551,22.267245 79.1854176,21.1859832 79.1854176,19.9479399 C79.1854176,17.729109 80.0344395,15.8841306 81.7325087,14.4129493 C83.430578,12.941768 85.8715159,12.2061884 89.0553958,12.2061884 C90.3779305,12.2061884 91.5943176,12.3187361 92.7045937,12.5438348 C93.8148698,12.7689336 94.8190014,13.1065767 95.7170188,13.5567743 L95.7904926,13.7979504 C95.6925271,14.3606973 95.619054,14.9314749 95.5700713,15.5103004 C95.5210885,16.0891258 95.4476154,17.4557765 95.3496499,19.6102934 L93.4638228,19.5861758 C93.4474952,19.4093125 93.4230042,19.111865 93.390349,18.6938244 C93.3413662,17.9702926 93.2434022,17.270889 93.0964539,16.5955926 C92.5902986,15.9524533 91.9657777,15.470106 91.2228724,15.1485363 C90.4799671,14.8269666 89.610536,14.6661842 88.6145531,14.6661842 C87.226708,14.6661842 86.1531852,14.9716708 85.3939523,15.5826532 C84.6347194,16.1936356 84.2551086,16.9251957 84.2551086,17.7773553 C84.2551086,18.6455935 84.4265457,19.2887232 84.7694251,19.7067638 C85.1123045,20.1248044 85.6184521,20.4383302 86.2878833,20.6473505 C86.9573144,20.8563707 88.1941108,21.1256813 89.9983094,21.4552903 C91.8025079,21.7848992 93.0148132,22.0622489 93.6352616,22.2873477 C94.533279,22.6249958 95.2516822,23.0510693 95.7904926,23.5655808 C96.329303,24.0800923 96.7415685,24.7192024 97.0273013,25.4829305 C97.3130341,26.2466585 97.4558984,27.0867467 97.4558984,28.0032203 C97.4558984,30.3989144 96.5129942,32.416734 94.6271577,34.0567394 C92.7413212,35.6967448 90.0922096,36.5167352 86.6797435,36.5167352 C85.5368122,36.5167352 84.4265528,36.4162462 83.348932,36.2152651 C82.2713111,36.0142841 80.9569599,35.648504 79.4058389,35.117914 L79.136435,34.75615 C79.2670558,33.5181067 79.3486925,32.6418424 79.3813477,32.1273309 L79.5282952,28.0755731 Z M129.649933,33.7673281 L129.649933,35.672619 C127.200795,35.608305 125.600715,35.5761486 124.849646,35.5761486 C124.343491,35.5761486 122.678102,35.608305 119.853429,35.672619 L119.608516,35.4314429 L119.951394,30.3908633 C120.000377,29.5065466 120.024868,28.4534217 120.024868,27.2314569 L120.024868,22.5526413 C120.024868,20.3659674 119.653421,18.850593 118.910515,18.0064726 C118.16761,17.1623522 117.102251,16.7402983 115.714406,16.7402983 C114.702095,16.7402983 113.820419,16.9895111 113.069349,17.4879441 C112.31828,17.9863771 111.746823,18.6616633 111.354961,19.513823 C111.208013,19.8193142 111.13454,20.4785221 111.13454,21.4914667 L111.13454,24.530285 C111.13454,25.7844068 111.159031,27.3801724 111.208014,29.3176298 C111.256996,31.2550872 111.314142,32.400662 111.379452,32.7543887 C111.428435,32.9473305 111.493745,33.0920347 111.575383,33.1885056 C111.65702,33.2849765 111.771312,33.3653677 111.91826,33.4296816 C112.163174,33.542231 112.538703,33.6226222 113.044858,33.6708577 L114.930685,33.7673281 L114.930685,35.672619 C110.473253,35.5600696 107.991497,35.5037957 107.485342,35.5037957 L101.411509,35.672619 L101.411509,33.7673281 C102.864665,33.7030142 103.717768,33.6387012 103.970846,33.5743873 C104.223924,33.5100733 104.411688,33.4176234 104.534145,33.2970348 C104.656602,33.1764462 104.750484,33.003605 104.815794,32.7785063 C104.930088,32.2800732 105.011724,30.7526401 105.060707,28.1961611 C105.10969,25.6396821 105.134181,23.3646107 105.134181,21.3708786 L105.134181,13.5567743 C105.134181,10.9681383 105.068871,8.6207148 104.938251,6.51443335 C104.889268,5.4371749 104.815795,4.80208429 104.717829,4.60914248 C104.652519,4.49659309 104.562719,4.40816275 104.448426,4.34384881 C104.268822,4.23129942 103.966766,4.14286908 103.542249,4.07855514 C103.26468,4.03031969 102.55444,3.98208496 101.411509,3.93384951 L101.411509,2.14914667 C103.713699,1.87581243 105.38317,1.62659966 106.419972,1.40150088 C107.456774,1.1764021 108.946644,0.758367776 110.889627,0.14738537 L111.428435,0.436796642 L111.232505,6.17678686 C111.167195,9.08699254 111.13454,11.7881374 111.13454,14.2803025 L111.13454,16.5955926 L115.445002,13.0744222 C116.587933,12.6403031 117.771665,12.4232468 118.996235,12.4232468 C120.286114,12.4232468 121.43311,12.6282444 122.437257,13.0382458 C123.441404,13.4482471 124.229198,13.9908878 124.800664,14.6661842 C125.372129,15.3414805 125.776231,16.0770601 126.012981,16.8729451 C126.249731,17.6688301 126.368104,18.7098963 126.368104,19.9961751 C126.368104,20.4302942 126.33545,21.6843971 126.270139,23.7585216 C126.221156,25.2859776 126.196665,26.5400806 126.196665,27.5208682 C126.196665,30.4953878 126.253811,32.2398772 126.368104,32.7543887 C126.449742,33.1081153 126.629343,33.3573281 126.906912,33.5020344 C127.184481,33.6467408 128.098812,33.7351711 129.649933,33.7673281 L129.649933,33.7673281 Z" id="stash"></path>
            </g>
        </g>
    </g>
</svg>